<svg width="100" height="100" viewBox="0 0 100 100" xmlns="http://www.w3.org/2000/svg">
  <path d="M65.5 25.5l-15.9 15.9c-1.2 1.2-3.2 1.2-4.4 0l-5.5-5.5c-1.2-1.2-1.2-3.2 0-4.4l15.9-15.9c1.2-1.2 3.2-1.2 4.4 0l5.5 5.5c1.2 1.2 1.2 3.2 0 4.4z" fill="#FFE873"/>
  <path d="M80.9 40.9l-15.9 15.9c-1.2 1.2-3.2 1.2-4.4 0l-5.5-5.5c-1.2-1.2-1.2-3.2 0-4.4l15.9-15.9c1.2-1.2 3.2-1.2 4.4 0l5.5 5.5c1.2 1.2 1.2 3.2 0 4.4z" fill="#F4470B"/>
  <path d="M70.7 31.6l-5.5-5.5c-1.2-1.2-3.2-1.2-4.4 0l-15.9 15.9c-1.2 1.2-1.2 3.2 0 4.4l5.5 5.5c1.2 1.2 3.2 1.2 4.4 0l15.9-15.9c1.2-1.2 1.2-3.2 0-4.4z" fill="#3776AB"/>
</svg>
